name C:\Users\u0101727\Documents\MyRepositories\upper-imu-dc\Results\main_tracking\Case_23\kinematics.mot
datacolumns 10
datarows 23
range 1.75000000 1.97000000
endheader 
time	clav_prot	clav_elev	scapula_abduction	scapula_elevation	scapula_upward_rot	scapula_winging	plane_elv	shoulder_elv	axial_rot	
          1.75000000	        -21.58887053	         16.20715062	         -5.71748954	          6.74043979	         32.32909267	         -1.61196613	         27.65979223	          4.31763707	          7.62795004	
          1.76000000	        -21.53598158	         16.18703489	         -5.66001656	          6.74226135	         32.26453752	         -1.59316086	         28.07839394	          4.37546435	          7.26056099	
          1.77000000	        -21.47814472	         16.18089736	         -5.59475079	          6.75298719	         32.20807053	         -1.57429085	         28.47088074	          4.41993869	          6.90821780	
          1.78000000	        -21.41549364	         16.18917001	         -5.52139476	          6.77272784	         32.16062780	         -1.55559538	         28.81278906	          4.44809409	          6.58024382	
          1.79000000	        -21.34269558	         16.20975335	         -5.42991381	          6.80060295	         32.12053723	         -1.53680382	         29.06675039	          4.45837368	          6.29229652	
          1.80000000	        -21.23859817	         16.23631479	         -5.28067847	          6.83433874	         32.08236141	         -1.51696659	         29.18483846	          4.45204545	          6.06612691	
          1.81000000	        -21.21351274	         16.26963929	         -5.29206414	          6.86974919	         32.03753000	         -1.49532922	         29.11475333	          4.43300941	          5.92747454	
          1.82000000	        -21.29053267	         16.30593626	         -5.50277149	          6.90190932	         31.98977763	         -1.47417349	         28.80847209	          4.39224147	          5.90359017	
          1.83000000	        -20.96573538	         16.30309313	         -4.91751853	          6.92803223	         31.94675296	         -1.45523676	         28.23044119	          4.31728347	          6.01897428	
          1.84000000	        -21.29660647	         16.32949779	         -5.62762524	          6.94298086	         31.87534633	         -1.43203697	         27.36279102	          4.24058116	          6.29873021	
          1.85000000	        -21.31844593	         16.30624975	         -5.73926289	          6.94526702	         31.77715094	         -1.40474769	         26.21586989	          4.15930090	          6.75395388	
          1.86000000	        -20.85124846	         16.21354484	         -4.89977134	          6.93167647	         31.64836297	         -1.37366183	         24.83480333	          4.07939050	          7.37979926	
          1.87000000	        -20.81036286	         16.11315858	         -4.90154739	          6.89513217	         31.48287085	         -1.33858846	         23.29773490	          4.01394850	          8.15332558	
          1.88000000	        -20.78292839	         15.96947882	         -4.92950814	          6.83275932	         31.28554059	         -1.30130955	         21.70837811	          3.96584002	          9.02988360	
          1.89000000	        -20.76376709	         15.78607425	         -4.97187308	          6.74651470	         31.06119652	         -1.26229982	         20.18440154	          3.93780105	          9.94539194	
          1.90000000	        -20.74820541	         15.56691092	         -5.02138576	          6.63943183	         30.81084669	         -1.22066745	         18.84011897	          3.93616225	         10.82438737	
          1.91000000	        -20.73263853	         15.31437768	         -5.07404164	          6.51386852	         30.53296717	         -1.17497208	         17.76856011	          3.96908601	         11.59166134	
          1.92000000	        -20.71366738	         15.02832522	         -5.12537872	          6.37047724	         30.22524766	         -1.12395907	         17.02644451	          4.04443462	         12.18649393	
          1.93000000	        -20.68848557	         14.70534981	         -5.16992290	          6.20741463	         29.88569442	         -1.06698480	         16.62481569	          4.16847648	         12.57588429	
          1.94000000	        -20.65672679	         14.33861066	         -5.20407185	          6.01993040	         29.51339125	         -1.00415455	         16.52744864	          4.34500803	         12.76235705	
          1.95000000	        -20.62238045	         13.91869622	         -5.22934051	          5.80061505	         29.10975387	         -0.93635550	         16.65752444	          4.57392569	         12.78349221	
          1.96000000	        -20.59532883	         13.43531429	         -5.25571814	          5.54037248	         28.67933909	         -0.86493640	         16.91083908	          4.85030184	         12.70387915	
          1.97000000	        -20.59162846	         12.87989954	         -5.30400846	          5.23040156	         28.22948635	         -0.79088565	         17.17262789	          5.16479372	         12.60225258	
